<svg width="218" height="33" viewBox="0 0 218 33" fill="none" xmlns="http://www.w3.org/2000/svg">
<path d="M8.72991 27.14H20.4749V32H0.0899064L12.5774 5.495H1.57491V0.634999H21.0599L8.72991 27.14ZM36.4685 32.585C33.0635 32.585 30.3485 31.6775 28.3235 29.8625C26.3135 28.0325 25.3085 25.01 25.3085 20.795V0.634999H31.1585V21.425C31.1585 23.795 31.676 25.43 32.711 26.33C33.761 27.23 34.9835 27.68 36.3785 27.68C37.7885 27.68 38.9885 27.2375 39.9785 26.3525C40.9685 25.4675 41.4635 23.825 41.4635 21.425V0.634999H47.3135V20.795C47.3135 25.01 46.331 28.0325 44.366 29.8625C42.401 31.6775 39.7685 32.585 36.4685 32.585ZM76.0728 0.634999V32H70.2228V18.68H59.8728V32H54.0678V0.634999H59.8728V13.73H70.2228V0.634999H76.0728ZM91.608 0.634999C96.198 0.634999 99.7155 1.925 102.16 4.505C104.605 7.07 105.828 10.88 105.828 15.935C105.828 19.22 105.273 22.07 104.163 24.485C103.068 26.885 101.448 28.7375 99.303 30.0425C97.173 31.3475 94.593 32 91.563 32H83.508V0.634999H91.608ZM91.428 27.05C93.498 27.05 95.1705 26.54 96.4455 25.52C97.7205 24.5 98.628 23.1725 99.168 21.5375C99.708 19.8875 99.978 18.065 99.978 16.07C99.978 12.89 99.303 10.2725 97.953 8.2175C96.618 6.1625 94.443 5.135 91.428 5.135H89.313V27.05H91.428ZM110.842 0.634999H116.602V32H110.842V0.634999ZM147.223 27.455H136.018L134.353 32H128.053L141.328 0.0949977H141.778L155.098 32H148.978L147.223 27.455ZM145.558 23.09L142.273 14.54L141.508 12.02L140.788 14.54L137.638 23.09H145.558ZM171.9 32L163.845 20.66V32H158.13V0.634999H166.86C174.3 0.634999 178.02 3.965 178.02 10.625C178.02 12.11 177.78 13.5725 177.3 15.0125C176.82 16.4375 176.033 17.705 174.938 18.815C173.858 19.925 172.47 20.69 170.775 21.11L178.875 32H171.9ZM166.23 17.825C167.505 17.825 168.593 17.525 169.493 16.925C170.408 16.31 171.098 15.5 171.563 14.495C172.028 13.475 172.26 12.365 172.26 11.165C172.26 9.095 171.78 7.5725 170.82 6.5975C169.875 5.6225 168.3 5.135 166.095 5.135H163.845V17.825H166.23ZM192.067 0.634999C196.657 0.634999 200.174 1.925 202.619 4.505C205.064 7.07 206.287 10.88 206.287 15.935C206.287 19.22 205.732 22.07 204.622 24.485C203.527 26.885 201.907 28.7375 199.762 30.0425C197.632 31.3475 195.052 32 192.022 32H183.967V0.634999H192.067ZM191.887 27.05C193.957 27.05 195.629 26.54 196.904 25.52C198.179 24.5 199.087 23.1725 199.627 21.5375C200.167 19.8875 200.437 18.065 200.437 16.07C200.437 12.89 199.762 10.2725 198.412 8.2175C197.077 6.1625 194.902 5.135 191.887 5.135H189.772V27.05H191.887ZM211.301 0.634999H217.061V32H211.301V0.634999Z" fill="#2C2C2C"/>
</svg>
