<svg width="30" height="23" viewBox="0 0 30 23" fill="none" xmlns="http://www.w3.org/2000/svg">
<path d="M23.2517 2.02783L15.0875 8.24981L6.73656 2.02783V2.02951L6.74665 2.03792V10.7504L14.9933 17.1069L23.2517 10.9959V2.02783Z" fill="#EA4335"/>
<path d="M25.3957 0.514525L23.2517 2.02798V10.996L29.9983 5.93773V2.89065C29.9983 2.89065 29.1794 -1.46137 25.3957 0.514525Z" fill="#FBBC05"/>
<path d="M23.2517 10.9958V22.6275H28.4226C28.4226 22.6275 29.8941 22.4795 30 20.8417V5.9375L23.2517 10.9958Z" fill="#34A853"/>
<path d="M6.74665 22.6379V10.7506L6.73656 10.7422L6.74665 22.6379Z" fill="#C5221F"/>
<path d="M6.73655 2.02949L4.60426 0.524442C0.820628 -1.45145 0 2.89888 0 2.89888V5.94597L6.73655 10.7419V2.02949Z" fill="#C5221F"/>
<path d="M6.73656 2.02979V10.7422L6.74665 10.7506V2.03819L6.73656 2.02979Z" fill="#C5221F"/>
<path d="M0 5.94775V20.8519C0.10426 22.4915 1.57735 22.6378 1.57735 22.6378H6.74832L6.73655 10.742L0 5.94775Z" fill="#4285F4"/>
</svg>
