<svg width="30" height="30" viewBox="0 0 30 30" fill="none" xmlns="http://www.w3.org/2000/svg">
<path d="M15.0049 0C8.74257 0 6.91106 0.00646032 6.55505 0.0359932C5.26991 0.142819 4.47022 0.345166 3.59899 0.778931C2.92758 1.11233 2.39807 1.4988 1.87547 2.04054C0.923729 3.02851 0.346914 4.24397 0.138107 5.68878C0.0365878 6.39018 0.00705484 6.53323 0.00105597 10.1159C-0.00125129 11.3102 0.00105597 12.8819 0.00105597 14.99C0.00105597 21.2473 0.00797774 23.077 0.0379721 23.4323C0.141799 24.6828 0.337916 25.4696 0.753222 26.3302C1.54692 27.9776 3.06279 29.2143 4.84861 29.6757C5.46695 29.8349 6.1499 29.9226 7.02666 29.9641C7.39813 29.9803 11.1843 29.9918 14.9729 29.9918C18.7614 29.9918 22.5499 29.9872 22.9121 29.9688C23.9273 29.921 24.5168 29.8419 25.1686 29.6734C26.0541 29.4463 26.8794 29.0287 27.5867 28.4497C28.2941 27.8706 28.8665 27.1442 29.264 26.321C29.6712 25.4811 29.8777 24.6644 29.9712 23.4791C29.9915 23.2207 30 19.1006 30 14.9861C30 10.8709 29.9908 6.75842 29.9705 6.50001C29.8759 5.29562 29.6694 4.48577 29.249 3.62978C28.9041 2.92907 28.5211 2.40578 27.965 1.87073C26.9729 0.922904 25.7593 0.346089 24.3129 0.137513C23.6122 0.036224 23.4726 0.0062296 19.8871 0H15.0049Z" fill="url(#paint0_radial_309_241)"/>
<path d="M15.0049 0C8.74257 0 6.91106 0.00646032 6.55505 0.0359932C5.26991 0.142819 4.47022 0.345166 3.59899 0.778931C2.92758 1.11233 2.39807 1.4988 1.87547 2.04054C0.923729 3.02851 0.346914 4.24397 0.138107 5.68878C0.0365878 6.39018 0.00705484 6.53323 0.00105597 10.1159C-0.00125129 11.3102 0.00105597 12.8819 0.00105597 14.99C0.00105597 21.2473 0.00797774 23.077 0.0379721 23.4323C0.141799 24.6828 0.337916 25.4696 0.753222 26.3302C1.54692 27.9776 3.06279 29.2143 4.84861 29.6757C5.46695 29.8349 6.1499 29.9226 7.02666 29.9641C7.39813 29.9803 11.1843 29.9918 14.9729 29.9918C18.7614 29.9918 22.5499 29.9872 22.9121 29.9688C23.9273 29.921 24.5168 29.8419 25.1686 29.6734C26.0541 29.4463 26.8794 29.0287 27.5867 28.4497C28.2941 27.8706 28.8665 27.1442 29.264 26.321C29.6712 25.4811 29.8777 24.6644 29.9712 23.4791C29.9915 23.2207 30 19.1006 30 14.9861C30 10.8709 29.9908 6.75842 29.9705 6.50001C29.8759 5.29562 29.6694 4.48577 29.249 3.62978C28.9041 2.92907 28.5211 2.40578 27.965 1.87073C26.9729 0.922904 25.7593 0.346089 24.3129 0.137513C23.6122 0.036224 23.4726 0.0062296 19.8871 0H15.0049Z" fill="url(#paint1_radial_309_241)"/>
<path d="M14.998 3.92236C11.9903 3.92236 11.6128 3.93551 10.4315 3.98927C9.25247 4.04326 8.4477 4.22992 7.74352 4.50379C7.01512 4.78666 6.39724 5.16505 5.78166 5.78086C5.16562 6.39644 4.78723 7.01432 4.50344 7.74249C4.22887 8.4469 4.04199 9.2519 3.98892 10.4304C3.93631 11.6118 3.92247 11.9895 3.92247 14.9972C3.92247 18.0049 3.93585 18.3813 3.98938 19.5626C4.0436 20.7416 4.23026 21.5464 4.5039 22.2505C4.787 22.9789 5.16539 23.5968 5.7812 24.2124C6.39654 24.8284 7.01443 25.2077 7.74237 25.4906C8.447 25.7645 9.25201 25.9511 10.4308 26.0051C11.6121 26.0589 11.9893 26.072 14.9968 26.072C18.0048 26.072 18.3811 26.0589 19.5625 26.0051C20.7415 25.9511 21.5472 25.7645 22.2518 25.4906C22.98 25.2077 23.5969 24.8284 24.2123 24.2124C24.8283 23.5968 25.2067 22.9789 25.4905 22.2508C25.7627 21.5464 25.9496 20.7414 26.005 19.5628C26.0581 18.3815 26.0719 18.0049 26.0719 14.9972C26.0719 11.9895 26.0581 11.612 26.005 10.4307C25.9496 9.25167 25.7627 8.4469 25.4905 7.74272C25.2067 7.01432 24.8283 6.39644 24.2123 5.78086C23.5962 5.16482 22.9802 4.78643 22.2511 4.50379C21.5451 4.22992 20.7398 4.04326 19.5608 3.98927C18.3795 3.93551 18.0034 3.92236 14.9948 3.92236H14.998ZM14.0045 5.91814C14.2994 5.91768 14.6284 5.91814 14.998 5.91814C17.955 5.91814 18.3055 5.92876 19.4732 5.98182C20.553 6.0312 21.139 6.21163 21.5294 6.36321C22.0462 6.56394 22.4147 6.8039 22.8021 7.19152C23.1897 7.57914 23.4296 7.9483 23.6308 8.46512C23.7824 8.85505 23.9631 9.44109 24.0122 10.5209C24.0653 11.6884 24.0768 12.0391 24.0768 14.9947C24.0768 17.9503 24.0653 18.301 24.0122 19.4684C23.9629 20.5482 23.7824 21.1343 23.6308 21.5242C23.4301 22.041 23.1897 22.409 22.8021 22.7964C22.4145 23.184 22.0464 23.424 21.5294 23.6247C21.1395 23.777 20.553 23.957 19.4732 24.0064C18.3057 24.0594 17.955 24.071 14.998 24.071C12.0408 24.071 11.6903 24.0594 10.5228 24.0064C9.44305 23.9565 8.857 23.7761 8.46638 23.6245C7.94956 23.4238 7.5804 23.1838 7.19278 22.7962C6.80516 22.4086 6.5652 22.0403 6.36401 21.5233C6.21242 21.1334 6.03177 20.5473 5.98262 19.4675C5.92955 18.3 5.91894 17.9493 5.91894 14.9919C5.91894 12.0345 5.92955 11.6856 5.98262 10.5181C6.032 9.43833 6.21242 8.85228 6.36401 8.46189C6.56474 7.94507 6.80516 7.57591 7.19278 7.18829C7.5804 6.80067 7.94956 6.56071 8.46638 6.35952C8.85677 6.20724 9.44305 6.02728 10.5228 5.97767C11.5445 5.93152 11.9404 5.91768 14.0045 5.91537V5.91814ZM20.9097 7.75703C20.6468 7.75703 20.3898 7.83498 20.1713 7.98103C19.9527 8.12708 19.7824 8.33467 19.6818 8.57754C19.5812 8.8204 19.5549 9.08764 19.6062 9.34545C19.6576 9.60326 19.7842 9.84006 19.9701 10.0259C20.156 10.2117 20.3928 10.3383 20.6507 10.3895C20.9085 10.4407 21.1757 10.4144 21.4186 10.3137C21.6614 10.213 21.8689 10.0426 22.0149 9.82401C22.1609 9.6054 22.2387 9.34841 22.2386 9.08555C22.2386 8.35184 21.6434 7.75657 20.9097 7.75657V7.75703ZM14.998 9.30981C11.8571 9.30981 9.31061 11.8563 9.31061 14.9972C9.31061 18.1381 11.8571 20.6834 14.998 20.6834C18.1389 20.6834 20.6847 18.1381 20.6847 14.9972C20.6847 11.8563 18.1386 9.30981 14.9978 9.30981H14.998ZM14.998 11.3056C17.0367 11.3056 18.6896 12.9583 18.6896 14.9972C18.6896 17.0359 17.0367 18.6888 14.998 18.6888C12.9591 18.6888 11.3064 17.0359 11.3064 14.9972C11.3064 12.9583 12.9591 11.3056 14.998 11.3056V11.3056Z" fill="white"/>
<defs>
<radialGradient id="paint0_radial_309_241" cx="0" cy="0" r="1" gradientUnits="userSpaceOnUse" gradientTransform="translate(7.96882 32.3018) rotate(-90) scale(29.7241 27.6533)">
<stop stop-color="#FFDD55"/>
<stop offset="0.1" stop-color="#FFDD55"/>
<stop offset="0.5" stop-color="#FF543E"/>
<stop offset="1" stop-color="#C837AB"/>
</radialGradient>
<radialGradient id="paint1_radial_309_241" cx="0" cy="0" r="1" gradientUnits="userSpaceOnUse" gradientTransform="translate(-5.02513 2.16056) rotate(78.6776) scale(13.2869 54.7831)">
<stop stop-color="#3771C8"/>
<stop offset="0.128" stop-color="#3771C8"/>
<stop offset="1" stop-color="#6600FF" stop-opacity="0"/>
</radialGradient>
</defs>
</svg>
